<?xml version="1.0" encoding="utf-8"?>
<!-- Generator: Adobe Illustrator 19.1.0, SVG Export Plug-In . SVG Version: 6.00 Build 0)  -->
<svg version="1.1"
	 id="svg3109" xmlns:sodipodi="http://sodipodi.sourceforge.net/DTD/sodipodi-0.dtd" xmlns:dc="http://purl.org/dc/elements/1.1/" xmlns:cc="http://creativecommons.org/ns#" xmlns:inkscape="http://www.inkscape.org/namespaces/inkscape" xmlns:svg="http://www.w3.org/2000/svg" xmlns:rdf="http://www.w3.org/1999/02/22-rdf-syntax-ns#" inkscape:export-ydpi="81.059998" inkscape:export-filename="C:\Users\niortenzio\Solutions\sportsvu\image\fullcourt.png" sodipodi:docname="fullcourt.svg" inkscape:version="0.48.4 r9939" inkscape:export-xdpi="81.059998"
	 xmlns="http://www.w3.org/2000/svg" xmlns:xlink="http://www.w3.org/1999/xlink" x="0px" y="0px" width="1882px" height="1002px"
	 viewBox="643 -81.1 1882 1002" style="enable-background:new 643 -81.1 1882 1002;" xml:space="preserve">
<style type="text/css">
	.st0{display:none;fill:#FFFFFF;fill-opacity:0.6;}
	.st1{stroke:#000000;stroke-miterlimit:10;}
	.st2{opacity:0.2;}
	.st3{fill:none;stroke:#000000;stroke-width:9;stroke-miterlimit:10;}
	.st4{fill:none;stroke:#000000;stroke-width:7;stroke-miterlimit:10;}
</style>
<path id="rect3165" class="st0" d="M1470-45.3h66c1.1,0,2,0.9,2,2v36c0,1.1-0.9,2-2,2h-66c-1.1,0-2-0.9-2-2v-36
	C1468-44.4,1468.9-45.3,1470-45.3z"/>
<g id="layer1" transform="translate(0,-64)" inkscape:label="Layer" inkscape:groupmode="layer">
</g>
<g>
	<polygon class="st1" points="2520,-76.1 2515.9,-76.1 2515.9,-23.6 2245,-23.6 2245,-72 2520,-72 2520,-76.1 2515.9,-76.1 
		2520,-76.1 2520,-80.1 2237,-80.1 2237,-15.5 2524,-15.5 2524,-80.1 2520,-80.1 	"/>
	<polygon class="st1" points="2520,859.3 2516,859.3 2516,911.6 2245,911.6 2245,863.4 2520,863.4 2520,859.3 2516,859.3 
		2520,859.3 2520,855.3 2237,855.3 2237,919.6 2524,919.6 2524,855.3 2520,855.3 	"/>
	<path class="st1" d="M2237.9-23.5c-185.2,75.6-297.4,254.6-297.4,443.6c0,60,11.3,121.1,35.3,180.1
		c48.5,119.6,143,214.5,262.2,263.1l3.1-7.7c-117.1-47.8-210-141-257.6-258.5c-23.5-58-34.7-118.1-34.7-177
		C1948.7,234.4,2059,58.4,2241-15.9L2237.9-23.5L2237.9-23.5z"/>
	<polygon class="st1" points="2519.9,260.1 2519.9,256 2137.4,256 2137.4,583.9 2524,583.9 2524,256 2519.9,256 2519.9,260.1 
		2515.7,260.1 2515.7,575.6 2145.7,575.6 2145.7,264.3 2519.9,264.3 2519.9,260.1 2515.7,260.1 	"/>
	<polygon class="st1" points="2519.9,300 2519.9,295.9 2137.4,295.9 2137.4,544 2524,544 2524,295.9 2519.9,295.9 2519.9,300 
		2515.7,300 2515.7,535.7 2145.7,535.7 2145.7,304.2 2519.9,304.2 2519.9,300 2515.7,300 	"/>
	<path class="st1" d="M2141.5,300v-4.1c-68.3,0-123.6,55.5-123.6,124s55.3,124,123.6,124s123.6-55.5,123.6-124s-55.3-124-123.6-124
		V300v4.1c31.9,0,60.7,12.9,81.5,33.9c20.9,20.9,33.8,49.8,33.8,81.9s-12.9,60.8-33.8,81.9c-20.9,20.9-49.7,33.9-81.5,33.9
		c-31.9,0-60.7-12.9-81.5-33.9c-20.9-20.9-33.8-49.8-33.8-81.9s12.9-60.8,33.8-81.9c20.9-20.9,49.7-33.9,81.5-33.9V300z"/>
	<polyline class="st1" points="2436.1,359.9 2436.1,479.8 2444.4,479.8 2444.4,359.9 	"/>
	<polyline class="st1" points="2440.2,415.8 2430.3,415.8 2430.3,424.1 2440.2,424.1 	"/>
	<path class="st1" d="M2415.3,405v-4.1c-10.5,0-19.1,8.6-19.1,19.1c0,10.6,8.5,19.1,19.1,19.1c10.5,0,19.1-8.6,19.1-19.1l0,0h-4.1
		l4.1,0.3V420h-4.1l4.1,0.3v-0.2v-0.2c0-10.5-8.5-19.1-19.1-19.1V405v4.1c5.9,0,10.8,4.8,10.8,10.8h4.1l-4.1-0.3v0.3l0,0
		c0,3-1.2,5.7-3.2,7.7c-2,2-4.6,3.2-7.6,3.2s-5.7-1.2-7.6-3.2c-2-2-3.2-4.7-3.2-7.7s1.2-5.7,3.2-7.7c2-2,4.6-3.2,7.6-3.2V405
		L2415.3,405z"/>
	<path class="st1" d="M1966.5-15.7v-59.9c0-2.3-1.9-4.1-4.1-4.1c-2.3,0-4.1,1.9-4.1,4.1v59.9c0,2.3,1.9,4.1,4.1,4.1
		C1964.6-11.5,1966.5-13.4,1966.5-15.7"/>
	<path class="st1" d="M1966.5,915.5v-59.9c0-2.3-1.9-4.1-4.1-4.1c-2.3,0-4.1,1.9-4.1,4.1v59.9c0,2.3,1.9,4.1,4.1,4.1
		S1966.5,917.8,1966.5,915.5"/>
	<polyline class="st1" points="2519.9,196 2499.9,196 2499.9,204.3 2519.9,204.3 	"/>
	<polyline class="st1" points="2519.9,635.6 2499.9,635.6 2499.9,643.9 2519.9,643.9 	"/>
	<polyline class="st1" points="2384.6,260.1 2384.6,240.1 2376.3,240.1 2376.3,260.1 	"/>
	<polyline class="st1" points="2364.7,260.1 2364.7,240.1 2356.4,240.1 2356.4,260.1 	"/>
	<polyline class="st1" points="2305,260.1 2305,240.1 2296.7,240.1 2296.7,260.1 	"/>
	<polyline class="st1" points="2245.2,260.1 2245.2,240.1 2237,240.1 2237,260.1 	"/>
	<polyline class="st1" points="2376.3,579.8 2376.3,599.7 2384.6,599.7 2384.6,579.8 	"/>
	<polyline class="st1" points="2356.4,579.8 2356.4,599.7 2364.7,599.7 2364.7,579.8 	"/>
	<polyline class="st1" points="2296.7,579.8 2296.7,599.7 2305,599.7 2305,579.8 	"/>
	<polyline class="st1" points="2237,579.8 2237,599.7 2245.2,599.7 2245.2,579.8 	"/>
	<polygon class="st1" points="648,915.9 652.1,915.9 652.1,863.3 923,863.3 923,911.8 648,911.8 648,915.9 652.1,915.9 648,915.9 
		648,919.9 931,919.9 931,855.3 644,855.3 644,919.9 648,919.9 	"/>
	<polygon class="st1" points="648,-19.6 652,-19.6 652,-71.7 923,-71.7 923,-23.7 648,-23.7 648,-19.6 652,-19.6 648,-19.6 
		648,-15.6 931,-15.6 931,-79.8 644,-79.8 644,-15.6 648,-15.6 	"/>
	<path class="st1" d="M930.1,863.3c185.2-75.7,297.5-254.7,297.5-443.7c0-60-11.3-121.1-35.3-180.1
		c-48.5-119.6-143-214.5-262.2-263.1l-3.1,7.7c117.1,47.8,210,141,257.6,258.5c23.5,58,34.7,118.1,34.7,177
		c0,185.7-110.3,361.7-292.3,435.9L930.1,863.3L930.1,863.3z"/>
	<polygon class="st1" points="648.1,579.7 648.1,583.8 1030.6,583.8 1030.6,255.9 644,255.9 644,583.8 648.1,583.8 648.1,579.7 
		652.3,579.7 652.3,264.2 1022.3,264.2 1022.3,575.5 648.1,575.5 648.1,579.7 652.3,579.7 	"/>
	<polygon class="st1" points="648.1,539.8 648.1,543.9 1030.6,543.9 1030.6,295.8 644,295.8 644,543.9 648.1,543.9 648.1,539.8 
		652.3,539.8 652.3,304.1 1022.3,304.1 1022.3,535.6 648.1,535.6 648.1,539.8 652.3,539.8 	"/>
	<path class="st1" d="M1026.5,539.8v4.1c68.3,0,123.6-55.5,123.6-124l0,0l0,0l0,0c0-68.5-55.3-124-123.6-124l0,0h-0.1
		c-68.3,0-123.6,55.5-123.6,124l0,0v0.1c0,68.5,55.3,124,123.6,124h0.1l0,0V539.8v-4.1h-0.1l0,0c-63.7,0-115.3-51.8-115.3-115.7l0,0
		l0,0c0-64,51.7-115.7,115.3-115.7l0,0l0,0c63.6,0,115.2,51.8,115.3,115.7l0,0v0.1c0,64-51.6,115.7-115.3,115.7l0,0L1026.5,539.8
		L1026.5,539.8z"/>
	<polyline class="st1" points="731.9,479.8 731.9,359.9 723.6,359.9 723.6,479.8 	"/>
	<polyline class="st1" points="727.8,424 737.7,424 737.7,415.7 727.8,415.7 	"/>
	<path class="st1" d="M752.7,434.8v4.1c10.5,0,19.1-8.6,19.1-19.1h-2.9h2.9l0,0h-2.9h2.9l0,0l0,0c0-10.5-8.5-19.1-19.1-19.1v4.1
		l0.1-4.1h-0.1c-10.5,0-19.1,8.6-19.1,19.1l0,0l0,0c0,10.5,8.5,19.1,19.1,19.1l0,0l0,0V434.8v-4.1l0,0l0,0c-3,0-5.7-1.2-7.6-3.2
		c-2-2-3.2-4.7-3.2-7.7h-0.3h0.3l0,0h-0.3h0.3l0,0c0-3,1.2-5.7,3.2-7.7c2-2,4.6-3.2,7.6-3.2v-3.7l-0.1,3.7h0.1v-3.7l-0.1,3.7l0,0
		l0,0c5.9,0,10.8,4.8,10.8,10.8l0,0l0,0c0,3-1.2,5.7-3.2,7.7c-2,2-4.6,3.2-7.6,3.2l0,0v4.2L752.7,434.8L752.7,434.8z"/>
	<path class="st1" d="M1209.8,915.4v-59.7c0-2.3-1.9-4.1-4.1-4.1c-2.3,0-4.1,1.9-4.1,4.1v59.7c0,2.3,1.9,4.1,4.1,4.1
		C1207.9,919.5,1209.8,917.7,1209.8,915.4"/>
	<path class="st1" d="M1209.8-15.8v-59.9c0-2.3-1.9-4.1-4.1-4.1c-2.3,0-4.1,1.9-4.1,4.1v59.9c0,2.3,1.9,4.1,4.1,4.1
		C1207.9-11.6,1209.8-13.5,1209.8-15.8"/>
	<polyline class="st1" points="648.1,643.8 668.1,643.8 668.1,635.5 648.1,635.5 	"/>
	<polyline class="st1" points="648.1,204.2 668.1,204.2 668.1,195.9 648.1,195.9 	"/>
	<polyline class="st1" points="783.4,579.7 783.4,599.7 791.7,599.7 791.7,579.7 	"/>
	<polyline class="st1" points="803.3,579.7 803.3,599.7 811.6,599.7 811.6,579.7 	"/>
	<polyline class="st1" points="863,579.7 863,599.7 871.3,599.7 871.3,579.7 	"/>
	<polyline class="st1" points="922.8,579.7 922.8,599.7 931,599.7 931,579.7 	"/>
	<polyline class="st1" points="791.7,260.1 791.7,240 783.4,240 783.4,260.1 	"/>
	<polyline class="st1" points="811.6,260.1 811.6,240 803.3,240 803.3,260.1 	"/>
	<polyline class="st1" points="871.3,260.1 871.3,240 863,240 863,260.1 	"/>
	<polyline class="st1" points="931,260.1 931,240 922.8,240 922.8,260.1 	"/>
	<g>
		<path d="M2515-70.8v981.4H653V-70.8H2515 M2524-79.8H644v999.4h1880V-79.8L2524-79.8z"/>
	</g>
</g>
<g class="st2">
	<g>
		<g>
			<circle class="st3" cx="1584" cy="419.9" r="119.3"/>
		</g>
	</g>
	<g>
		<g>
			<circle class="st3" cx="1584" cy="419.9" r="39"/>
		</g>
	</g>
	<g>
		<g>
			<g>
				<line class="st4" x1="1584" y1="-79.7" x2="1584" y2="919.5"/>
			</g>
		</g>
	</g>
</g>
</svg>
