<?xml version="1.0" encoding="utf-8"?>
<!-- Generator: Adobe Illustrator 19.1.0, SVG Export Plug-In . SVG Version: 6.00 Build 0)  -->
<svg version="1.1" id="Layer_1" xmlns="http://www.w3.org/2000/svg" xmlns:xlink="http://www.w3.org/1999/xlink" x="0px" y="0px"
	 width="327.1px" height="188.4px" viewBox="-55.9 341.5 327.1 188.4" style="enable-background:new -55.9 341.5 327.1 188.4;"
	 xml:space="preserve">
<style type="text/css">
	.st0{fill:#0071CE;}
	.st1{fill:#F42534;}
	.st2{fill:#FFFFFF;}
	.st3{fill:#FFB819;}
	.st4{fill:#041E41;}
</style>
<path class="st0" d="M203.9,408.5c23-5.1,45.5-8.5,67.3-10.3c-24.1,7.4-48.7,15.6-73.5,24.6C199.9,418.2,201.9,413.4,203.9,408.5
	 M-39.2,529.9c19.2-17,40.9-33.2,64.7-48.1c4.5-2.3,8.9-4.5,13.4-6.7c1.8-0.9,5.5-2.7,10-4.8c3.1,3.4,6.2,6.8,9.5,10
	C24.4,496.2-8.3,512.8-39.2,529.9"/>
<path class="st1" d="M213.4,380.1c19.9-0.8,39.2-0.5,57.7,0.9c-20,2.8-40.3,6.1-61,9.9C211.3,387.4,212.4,383.8,213.4,380.1
	 M-55.9,462.6c22.3-14.2,47-27.1,73.7-38.3c0.9,1.8,1.8,3.6,2.7,5.3c-1.4,2.9-2.9,5.9-4.3,8.8C-8.6,446.1-32.7,454.1-55.9,462.6"/>
<path class="st2" d="M87.3,452.1l3.3-1.5l8.3-6.7l1.9-5.1c1.2,2.5,1.9,3.4,3.1,5.8l2.7-1.2c0.1,2.7,0.1,5.2,0.1,7.7
	c-6,1.4-12.5,2.1-19.2,2.2L87.3,452.1z M111.3,441.3c3.5-1.5,6.9-3,10.4-4.5l1.6-1.7c0.7,0.1,1.5,0.1,2.4,0.1c1.3-0.2,3-0.7,4.8-1.3
	c-1.2,4.2-1.9,7.9-2.2,11.1c-4.9,1.7-10.4,3.4-16.7,5C111.5,447.1,111.4,444.3,111.3,441.3 M107.6,348.3c37.6,0,67.1,8.8,100.4,25.4
	c-16.3,61.4-46.1,102.7-100.4,136.2c-20.4-12.6-37.7-26.7-52.2-42.7c6.4-3.1,13.7-6.5,20.1-9.5c2.6,0.2,5,0.4,7.4,0.4
	c-0.1,3.5-1.3,6.1-3.1,8c1,1.2,2.1,2.4,3.2,3.5c2.8-2.5,4.6-6.2,4.8-11.5c6.6-0.1,13-0.8,18.9-2.1c-0.3,9.7-1.7,16.8-4.4,19.6
	c-0.1,0.1-0.2,0.2-0.2,0.2c-0.7,0.8-1.3,1.3-1.8,1.8c2.6-0.5,5.3-1.1,7.8-1.8c3.3-6.9,3.4-18.9,3.4-21c6.1-1.5,11.6-3.1,16.6-4.8
	c0.2,5.6,2.5,11,6.8,13c1.9-1.4,3.8-2.8,5.7-4.3c-1.1,0.2-7.9,0.6-7.8-10.3c14.5-5.5,23.9-12,32.2-21.8c2.2-5,3.9-10.1,5.2-15.5
	c-9.9,15.6-19,24.7-36.8,31.9c0.5-3.2,1.4-6.9,2.9-11.4c5.2-2.2,10.6-4.8,13.9-6.1l7.8-8.2c2-7.6,3.9-15.1,5.8-22.7l-6.1,1.9
	l7.2-7.5c1.5-5.9,3-11.9,4.5-17.8c-3.6,0.5-7.2,1.1-10.8,1.6c0.6-3,1-5.9,1.3-8.8c-1.7-0.4-3.5-0.9-5.2-1.2c-0.4,3.3-1,6.9-2,11
	l-0.5,0.1c-3.4,0.6-6.8,1.7-9.8,4.2l1-2.9c-5.8,1-11.5,2.1-17.3,3.2l-5.7,6l0.2-0.5l1.9-4.8c-5.7,1.2-11.4,2.4-17.1,3.6
	c-1.2-7.7-2.4-14.6-3.4-20.2c-1.6,0.2-3.2,0.4-4.8,0.6c1,5.7,2.3,12.8,3.5,20.6l-4,0.9l-5.1,5.4c-3.6-3.8-10.9-1.4-15.5-0.2
	c-5,1.3-9.9,2.6-14.9,3.9c-1.5,0.4-3,0.9-4.4,1.4c-3.7-5.4-7.2-10.9-10.1-16.9l-0.5-1.1c-1.5,0.6-3,1.2-4.5,1.9l0.6,1.3
	c2.8,5.8,6.2,11.3,9.8,16.6c-5.3,2.4-10.3,5.7-14.6,10.4c0,0-7,7.3-7.8,8.2c-1.8,2.1-3.4,4.3-4.7,6.5c-7.3-14.7-13.1-30.7-17.5-48.2
	C40.5,357.1,70,348.3,107.6,348.3"/>
<path class="st1" d="M87.3,452.1l3.3-1.5l8.3-6.7l1.9-5.1c1.2,2.5,1.9,3.4,3.1,5.9l2.7-1.2c0.1,2.7,0.1,5.2,0.1,7.7
	c-6,1.4-12.5,2.1-19.2,2.2L87.3,452.1z M111.3,441.3c3.5-1.5,6.9-3,10.4-4.5l1.6-1.7c0.7,0.1,1.5,0.1,2.3,0.1c1.3-0.2,3-0.7,4.8-1.3
	c-1.2,4.2-1.9,7.9-2.2,11.1c-4.9,1.7-10.4,3.4-16.7,5C111.5,447.1,111.4,444.3,111.3,441.3 M45.7,377.1c16.6-6.8,33.6-11.5,51.1-14
	c1,5.7,2.3,12.8,3.5,20.6l-4,0.9l-5.1,5.4c-3.6-3.8-10.9-1.4-15.4-0.2c-5,1.3-9.9,2.6-14.9,3.9c-1.5,0.4-3,0.9-4.4,1.4
	c-3.7-5.4-7.2-10.9-10.1-16.8L45.7,377.1z M41.6,403.1c-2.7-6.8-5.1-13.8-7.1-21c2.2-1.1,4.5-2.1,6.8-3.1l0.6,1.3
	c2.8,5.8,6.2,11.3,9.8,16.6C48.1,398.5,44.7,400.5,41.6,403.1 M79.8,466.1c-2.1-2.5-4.2-5-6.2-7.5l1.9-0.9c2.6,0.2,5.1,0.4,7.4,0.4
	C82.7,461.6,81.6,464.2,79.8,466.1 M100.2,477.7c-2.7,0.5-5.5,0.9-8.3,1.1c-3.1-3-6.1-6.1-8.9-9.2c2.8-2.5,4.6-6.2,4.8-11.5
	c6.6-0.1,13-0.8,18.9-2.1c-0.3,9.7-1.7,16.8-4.4,19.6c-0.1,0.1-0.2,0.2-0.2,0.2C101.3,476.7,100.7,477.3,100.2,477.7 M134.8,463.2
	c-8,5.7-17.1,10-26.8,12.8c3.3-6.9,3.4-18.9,3.4-21c6.1-1.5,11.6-3.1,16.6-4.8C128.2,455.8,130.5,461.2,134.8,463.2 M164.8,426.7
	c-5.6,12.5-13.9,23.5-24.3,32.2c-1.1,0.2-7.9,0.6-7.8-10.3C147.1,443,156.5,436.5,164.8,426.7 M127.9,360.9c8,0,15.8,0.4,23.5,1.3
	c5.9,1.2,11.7,2.7,17.5,4.5c2.2,7.7,3.4,15.9,3.4,24.3c0,7-0.8,13.7-2.3,20.2c-9.9,15.6-19,24.7-36.8,31.9c0.5-3.2,1.4-6.9,2.9-11.4
	c5.2-2.2,10.6-4.8,13.9-6.1l7.8-8.2c2-7.6,3.9-15.1,5.8-22.7l-6.1,1.9l7.2-7.5c1.5-5.9,3-11.9,4.5-17.8c-3.6,0.5-7.2,1.1-10.8,1.6
	c0.6-3,1-5.9,1.3-8.8c-1.7-0.4-3.5-0.9-5.2-1.2c-0.4,3.3-1,6.9-2,11l-0.5,0.1c-3.4,0.6-6.8,1.7-9.8,4.2l1-2.9
	c-5.8,1-11.5,2.1-17.3,3.2l-5.7,6l0.2-0.5l1.9-4.8c-5.7,1.2-11.4,2.4-17.1,3.6c-1.2-7.7-2.4-14.6-3.4-20.2
	C110.2,361.4,119,360.9,127.9,360.9"/>
<path class="st3" d="M33.9,410.6c-4.7-10.2-8.6-20.9-11.8-31.9c27.9-13.1,56.7-20.2,87.4-21.1c14.3,0.1,28.2,1.6,41.9,4.5
	c-7.7-0.8-15.6-1.3-23.5-1.3c-8.9,0-17.7,0.5-26.3,1.6c-1.6,0.2-3.2,0.4-4.8,0.6c-17.5,2.5-34.5,7.2-51.1,14c-1.5,0.6-3,1.2-4.5,1.9
	c-2.3,1-4.5,2-6.8,3.1c2,7.2,4.4,14.2,7.1,21c-1.5,1.3-3,2.7-4.4,4.2L33.9,410.6z M109.3,499.7c-16-10.8-30.2-23.6-42.5-37.9
	l6.9-3.2c2,2.5,4.1,5.1,6.2,7.5c1,1.2,2.1,2.4,3.2,3.5c9.1,10,19.2,19.2,30.2,27.4C111.9,498,110.6,498.8,109.3,499.7"/>
<path class="st4" d="M87.3,452.1l0.2,1.2c6.7-0.1,13.2-0.8,19.2-2.2c0-2.5,0-5-0.1-7.7l-2.7,1.2c-1.2-2.4-1.8-3.4-3.1-5.8l-1.9,5.1
	l-8.3,6.7L87.3,452.1z M111.3,441.3c0.1,3,0.2,5.8,0.2,8.6c6.3-1.6,11.8-3.2,16.7-5c0.3-3.2,1-6.9,2.2-11.1
	c-1.8,0.6-3.4,1.1-4.8,1.3c-0.9,0.1-1.7,0.1-2.4-0.1l-1.6,1.7C118.2,438.3,114.8,439.8,111.3,441.3 M107.6,348.3
	c-37.6,0-67.1,8.8-100.5,25.4c4.4,17.5,10.1,33.5,17.5,48.2c1.4-2.3,2.9-4.5,4.7-6.5c0.8-0.9,7.8-8.2,7.8-8.2
	c4.3-4.7,9.2-8,14.6-10.4c-3.7-5.3-7-10.7-9.8-16.6l-0.6-1.3c1.5-0.6,3-1.3,4.5-1.9l0.5,1.1c2.9,6,6.4,11.5,10.1,16.9
	c1.4-0.5,2.9-0.9,4.4-1.4c5-1.3,9.9-2.6,14.9-3.9c4.6-1.2,11.9-3.6,15.4,0.2l5.1-5.4l4-0.9c-1.2-7.9-2.4-15-3.5-20.6
	c1.6-0.2,3.2-0.4,4.8-0.6c1,5.6,2.2,12.6,3.4,20.2c5.7-1.2,11.4-2.4,17.1-3.6l-1.9,4.8l-0.2,0.5l5.7-6c5.8-1.1,11.5-2.2,17.3-3.2
	L142,378c3-2.5,6.4-3.6,9.8-4.2l0.5-0.1c1-4.1,1.6-7.7,2-11c1.7,0.4,3.5,0.8,5.2,1.2c-0.2,2.9-0.7,5.9-1.3,8.8
	c3.6-0.6,7.2-1.1,10.8-1.6c-1.5,5.9-3,11.9-4.5,17.8l-7.2,7.5l6.1-1.9c-2,7.5-3.9,15.1-5.8,22.7l-7.8,8.2c-3.3,1.4-8.7,4-13.9,6.1
	c-1.5,4.5-2.4,8.3-2.9,11.4c17.8-7.2,26.9-16.3,36.8-31.9c-1.3,5.4-3,10.5-5.2,15.5c-8.3,9.8-17.7,16.4-32.2,21.8
	c-0.1,11,6.8,10.5,7.8,10.3c-1.8,1.5-3.7,3-5.7,4.3c-4.3-2-6.6-7.4-6.8-13c-4.9,1.7-10.4,3.2-16.6,4.8c-0.1,2.1-0.1,14.1-3.4,21
	c-2.6,0.7-5.2,1.3-7.8,1.8c0.5-0.5,1.1-1.1,1.8-1.8c0-0.1,0.1-0.2,0.2-0.2c2.8-2.8,4.1-9.9,4.4-19.6c-5.9,1.3-12.3,1.9-18.9,2.1
	c-0.1,5.3-1.9,9-4.8,11.5c-1.1-1.2-2.1-2.3-3.2-3.5c1.8-1.9,2.9-4.5,3.1-8c-2.3-0.1-4.8-0.2-7.4-0.4c-6.4,3-13.7,6.5-20.1,9.5
	c14.5,16,31.8,30.1,52.2,42.7c54.3-33.5,84.1-74.8,100.4-136.2C174.7,357.1,145.2,348.3,107.6,348.3 M-0.8,370.1
	c36-18.5,67.6-28.6,108.5-28.6c40.8,0,72.5,10.1,108.5,28.6c-16.8,67.4-48.8,112.1-108.6,147.9c-22.5-13.5-42.3-29.3-58.6-47.7
	c-4.5,2.2-8.2,3.9-10,4.9c-5.6,2.8-11.3,5.6-16.9,8.5c-6.3,3.2-13.4,8.1-20.7,6.2c-8-3.5-2.7-13.2-0.3-18.7
	c6.2-14,12.7-27.8,19.4-41.6C12.4,414.4,6,397.8,1.6,379.9L-0.8,370.1z"/>
<path class="st2" d="M152.2,376.8c-3.5,0.6-6.6,1.7-9.2,4.3c-2.1,2.3-3.2,5-4.2,7.9c-2.8,8.6-5.5,17.3-8.3,25.9
	c-1.1,3.4-2.9,9.6,2.6,9.2c1.9-0.3,3.6-1.1,5.4-1.8c5.5-2.4,11.1-4.7,16.7-7c1.4-5.4,2.8-10.9,4.2-16.3c-2.9,0.9-5.8,1.8-8.8,2.8
	c-0.7,2.5-1.4,4.9-2.1,7.4c-2,0.7-4.1,1.5-6.1,2.2c2.6-8.8,5.1-17.5,7.7-26.3c1.8-0.4,3.6-0.8,5.4-1.2c-0.4,1.5-0.9,3.1-1.3,4.6
	c2.6-0.6,5.3-1.3,7.9-1.9c1-3.9,2-7.9,3-11.9C160.9,375.4,156.6,376.1,152.2,376.8 M127.3,381c-6.2,8.1-12.3,16.3-18.4,24.5
	c2.8-7.5,5.7-15,8.6-22.5c-6.4,1.3-12.9,2.7-19.2,4.2c-1.7,3.9-3.3,7.7-5,11.6c1.4-0.4,2.8-0.8,4.1-1.1c-5,12.2-10,24.4-14.8,36.7
	c-2,5-3.9,10-5.9,15c6.4-3,12.9-6,19.3-9c2.9-8.1,5.9-16.1,8.9-24.2c2.7,5.5,5.4,11,8.1,16.5c4.2-1.8,8.3-3.7,12.5-5.5
	c-2.5-5.8-5.1-11.6-7.7-17.3c4.6-7,9.3-14,14-20.9c1.3-0.3,2.7-0.6,4-0.9c1-3,2-6,3-9.1C135,379.6,131.1,380.3,127.3,381
	 M50.7,448.2c-4.5,2-8.9,4-13.4,6.1c6.5-15,13.2-29.9,20.2-44.7c3.9-1.2,7.9-2.5,11.8-3.7C62.8,420,56.6,434.1,50.7,448.2
	 M61.4,396.5c-8.5,2.3-16,5.9-22.1,12.6c-3.5,4-5.9,8.5-8.3,13.2C24.2,436.1,17.7,450,11.5,464c-1.6,3.6-6.6,12.5-1.3,14.8
	c5.9,1.5,13.2-3.4,18.4-6c5.6-2.9,11.3-5.7,16.9-8.5c9.6-4.8,18.3-10.6,24.1-19.9c2.3-3.9,4.1-8.2,5.8-12.4
	c3.7-9.1,7.4-18.1,11.3-27.1c1.4-3.4,3.9-7.6,3.1-11.3c-1.6-5-10-1.9-13.6-1C71.3,393.9,66.3,395.2,61.4,396.5"/>
<path class="st0" d="M176,369.3c2.5,0.8,5,1.7,7.4,2.6C181,371,178.5,370.1,176,369.3 M175.6,368.7c2.6,0.9,5.1,1.7,7.6,2.7
	c6.2,2.3,11.6,4.6,16.2,6.8c-13.9,47.9-42.5,88-82.8,116.6l-3.3,2.3c-11.8-8.9-18.8-15.8-18.8-15.8l5.6-0.9
	c16.8-2.8,33.1-10.4,46.5-23c22.9-21.4,32.2-51.8,27.5-80.6c-0.1-0.7-0.2-1.3-0.4-2l-0.1-0.3l-0.1-0.3l-0.1-0.2l-0.1-0.3l-0.1-0.3
	l-0.1-0.3l-0.1-0.3l-0.1-0.3l-0.1-0.3l-0.1-0.3l-0.1-0.4l-0.1-0.3l-0.1-0.3l-0.1-0.2l-0.1-0.3c-0.2-1-0.5-1.9-0.7-2.7
	C173.2,368,174.4,368.3,175.6,368.7"/>
</svg>
