<?xml version="1.0" encoding="utf-8"?>
<!-- Generator: Adobe Illustrator 19.1.0, SVG Export Plug-In . SVG Version: 6.00 Build 0)  -->
<svg version="1.1" id="Layer_1" xmlns="http://www.w3.org/2000/svg" xmlns:xlink="http://www.w3.org/1999/xlink" x="0px" y="0px"
	 width="263.9px" height="269.3px" viewBox="-28.5 246.3 263.9 269.3" style="enable-background:new -28.5 246.3 263.9 269.3;"
	 xml:space="preserve">
<style type="text/css">
	.st0{fill:#FFFFFF;}
</style>
<g>
	<path d="M235.4,282.8c0-2.8,0-4.4,0-4.4V275l-3.1-1.6c-2.2-1.1-54.5-27.1-127.1-27.1h-3.4c-72.6,0-124.9,26-127.1,27.1l-3.1,1.6
		v3.4c0,0,0,1.6,0,4.2c-0.6,30.9,3.2,109.4,51.2,170.4c38.9,49.5,75.4,61,79.5,62.1l1.6,0.5l1.6-0.4c1.6-0.4,38.8-11.3,78.8-62.1
		C232.2,392,236,313.6,235.4,282.8"/>
	<path class="st0" d="M180.7,450.3c47-59.7,50.7-136.6,50.1-166.9c0-2.8,0-4.4,0-4.4v-1.1l-1-0.5c-2.1-1.1-53.4-26.5-124.7-26.5
		h-3.4c-71.3,0-122.5,25.5-124.7,26.5l-1,0.5v1.1c0,0,0,1.6,0,4.2c-0.6,30.4,3.1,107.4,50.1,167.1c38,48.3,73.2,59.4,77.1,60.5
		l0.5,0.1l0.5-0.1C105.9,510.4,141.7,499.9,180.7,450.3 M103.9,507.2c-3-0.8-37.7-11.5-75-59c-49.2-62.5-49.4-144.3-49-163.6
		c0-2.7,0-4.2,0-4.2s0.1,0,0.2-0.1l0-0.2l1.1-0.5c2.6-1.2,8.4-3.7,16.9-6.8c21-7.7,58.5-18.4,104-18.4h3.3
		c45.4,0,82.8,10.7,103.8,18.4c8.5,3.1,14.4,5.6,17,6.8l1.1,0.5v0.2c0.1,0.1,0.2,0.1,0.2,0.1s0,1.5,0,4.2
		c0.4,19.3,0.2,101.1-49,163.6C140.8,495.8,106.7,506.5,103.9,507.2"/>
	<path class="st0" d="M45.7,271.1c-3.3,0.7-4.9,1-8.1,1.7c-0.6,0.1-1.1,0.7-1.1,1.3l0.7,59.8c0,4,0.1,7.6,0.3,10.9
		c-8.1-20.7-16.5-42.1-25.1-63.7c-0.3-0.7-1-1-1.7-0.8C6,282,3.6,282.8-1,284.6c-0.5,0.2-0.9,0.7-0.9,1.3v82.2
		c0,0.5,0.2,0.9,0.6,1.1c0.2,0.2,0.5,0.2,0.8,0.2c0.2,0,0.3,0,0.5-0.1c2.9-1.1,4.4-1.6,7.4-2.7c0.6-0.2,0.9-0.7,0.9-1.3
		C8.2,345.9,8.1,326.5,8,307c0-5.1-0.1-8-0.2-11.6c8.4,21.5,16.6,42.5,24.5,62.6c0.2,0.6,0.9,1,1.6,0.8c5-1.2,7.5-1.8,12.5-2.8
		c0.6-0.1,1.1-0.7,1.1-1.3v-82.2c0-0.4-0.2-0.8-0.5-1.1C46.5,271.2,46.1,271.1,45.7,271.1 M100.2,265.3c-14.2,0.2-28.5,1.5-42.6,3.8
		c-0.7,0.1-1.2,0.7-1.2,1.3v82.2c0,0.4,0.2,0.8,0.5,1c0.2,0.2,0.6,0.3,0.9,0.3c0.1,0,0.1,0,0.2,0c13.9-2.2,28-3.5,42-3.7
		c0.7,0,1.3-0.6,1.3-1.4v-5.1c0-0.4-0.1-0.7-0.4-1c-0.3-0.3-0.6-0.4-1-0.4c-13.1,0.2-20.2,0.7-32.7,2.4v-32.5
		c10.4-1.4,15.9-1.8,26.8-2.2c0.7,0,1.3-0.6,1.3-1.4v-5c0-0.4-0.2-0.7-0.4-1c-0.3-0.3-0.6-0.4-1-0.4c-10.7,0.4-16.4,0.9-26.6,2.2
		v-28.9c12.8-1.7,19.5-2.1,32.8-2.3c0.7,0,1.3-0.6,1.3-1.4v-5.1c0-0.4-0.1-0.7-0.4-1C100.9,265.4,100.5,265.2,100.2,265.3
		 M159.2,270c-16.7-3.1-33.8-4.7-50.7-4.9c-0.4,0-0.7,0.1-1,0.4c-0.3,0.3-0.4,0.6-0.4,1v5.2c0,0.7,0.6,1.4,1.4,1.4
		c7.9,0.1,12,0.3,19.6,0.9v75.8c0,0.7,0.5,1.3,1.3,1.4c3.3,0.3,4.9,0.4,8.3,0.8c0.1,0,0.1,0,0.1,0c0.3,0,0.7-0.1,0.9-0.4
		c0.3-0.3,0.5-0.6,0.5-1V275c7.5,0.8,11.7,1.5,19.6,2.9c0.4,0.1,0.8,0,1.1-0.3c0.3-0.3,0.5-0.6,0.5-1.1v-5.2
		C160.4,270.7,159.9,270.1,159.2,270 M194.5,319.1C177,301,175,298,175,290.6c0-7.4,3.2-8.4,6.4-8.4c1.6,0,3.7,0.3,6,1
		c12.6,3.6,12.6,10.5,12.6,15.7v7.3c0,0.6,0.4,1.1,0.9,1.3c3.1,1,4.6,1.6,7.8,2.8c0.4,0.2,0.9,0.1,1.3-0.2c0.4-0.3,0.6-0.7,0.6-1.1
		v-6.1c0-7.7,0-20.7-22.6-27.2c-15.8-4.5-23.9,0.3-23.9,14c0,11.4,7,18.2,18.6,29.5l2.3,2.3c13.7,13.5,16.5,17.9,16.5,26.4
		c0,3.1-0.5,5.2-1.4,6.5c-1,1.4-2.5,2-4.9,2c-1.8,0-4.1-0.4-6.9-1.2c-6-1.7-10.4-4.1-13-7c-3.2-3.6-3.2-6.6-3.2-12.6v-6.5
		c0-0.6-0.4-1.2-1.1-1.3c-3.4-0.8-5-1.1-8.2-1.7c-0.4-0.1-0.8,0-1.1,0.3c-0.3,0.3-0.5,0.7-0.5,1.1V339c0,10.8,8.9,19.1,25.6,23.9
		c4.7,1.4,8.8,2,12.2,2c13.1,0,13.1-10.6,13.1-15.1C212.2,337.9,206.1,331.1,194.5,319.1"/>
	<path class="st0" d="M154.7,416.6c0.9-1,1.7-2,2.2-3.1c4.3-8.3,0.5-17.6-1.2-20.8c-12-19.8-34.7-31.5-58.3-29.2
		C121.9,364.8,145.6,386.7,154.7,416.6 M74.7,392.3c5.9,2.5,13.6,6.6,21.8,11c12.9,6.9,26.3,14.1,35.3,16.4c8.1,2,14.7,1.8,19.3-0.5
		c0-0.1,0-0.2-0.1-0.3c-0.1-0.3-0.1-0.7-0.2-1c-3.9-16.5-24.6-52.6-60.3-52.6c-1.5,0-3,0.1-4.6,0.2c-13.8,4-25.2,12.5-32.9,23.5
		c1.3-0.4,3-0.8,5.3-0.8C62.9,388.3,68.3,389.6,74.7,392.3 M65.8,442.1c14.5,4.8,22.6,6.3,33.1,6.3c3.9,0,8.3-0.2,13.8-0.7
		c15.5-1.3,31.8-6.4,40.6-10.7c0-4.2-0.4-8.6-1.2-12.9c-2.6,1.6-5.5,2.3-9.2,2.3c-3.6,0-8-0.7-15.2-2.4c-8.4-2-20.5-9.2-31.2-15.5
		c-5.8-3.5-11.4-6.8-15.9-9c-17.4-8.6-27.3-7.4-29.9-6.8c-6.2,10.3-9.3,22.5-8.5,35C43.5,429.3,49.5,436.7,65.8,442.1 M157.5,434.7
		c0.2-0.1,0.3-0.2,0.4-0.3c5.1-3.6,6.5-9.4,6.7-10.3c0-4.9-0.6-9.8-1.9-14.7c0-0.2-0.1-0.4-0.2-0.6c-0.5,4.5-2.7,8.7-6.6,12.5
		C157,425.7,157.5,430.2,157.5,434.7 M159,438c-0.2,0.2-0.4,0.3-0.6,0.5c-0.3,0.2-0.7,0.5-1,0.7c-0.3,3.9-1,7.7-2.1,11.4
		c1.9-0.7,2.6,0.1,2.8,0.6c0,0.1,0,0.1,0.1,0.2c3.2-6.2,5.3-13,6.1-20C163.2,433.7,161.6,436.2,159,438 M156.6,453.2
		c-0.1-0.2-0.1-0.3-0.2-0.3c-0.2,0-0.6,0.1-1.5,0.6c-0.2,0.1-0.3,0.2-0.5,0.3c-0.1,0.1-0.3,0.2-0.4,0.3c-1.5,4-3.5,7.9-5.9,11.3
		c3.4-3.6,6.3-7.5,8.7-11.8h-0.1L156.6,453.2z M93.9,478.9c7-0.8,12.8-2.6,19.3-5.9c1-0.5,1.9-1,2.8-1.5c0.8-0.4,1.6-0.8,2.4-1.2
		c5.6-2.9,11.6-6.1,18.8-10c2.6-1.4,5.1-2.8,7.6-4.2l2.9-1.6c1.1-0.6,2.2-1.2,3.2-1.8c0.1-0.1,0.2-0.1,0.4-0.2
		c0.9-3.4,1.5-7.1,1.8-11c-7.1,3.6-17.8,6.7-33.5,9.9c-20.1,4-39.8,2.2-57.3-5.2c-11.8-5-17.4-11.9-19.7-15.6
		c0.3,2.7,0.8,5.4,1.5,8.1c3.9,15.3,13.3,27.8,25.6,35.9l-0.1-0.1l1.7,1c1.4,0.8,3.1,1.5,5.2,2.1c3.8,1.1,7.6,1.7,11.6,1.7
		C89.9,479.3,91.9,479.2,93.9,478.9 M149.6,457.3c-0.8,0.6-1.6,1.1-2.5,1.7c-2.3,1.6-4.6,3-6.9,4.4c-1.1,0.7-2.3,1.4-3.4,2.1
		c-8.2,5.1-18,10.7-28.5,13.9c-3.1,1-5.9,1.6-8.6,2.1c-2.5,0.4-4.9,0.6-7.3,0.6l-0.5,0c-3.1,0-6.1-0.3-9-0.8
		c11,3.9,23.2,4.7,35.4,1.7c7-1.7,13.4-4.6,19-8.3c5.4-4.2,9.8-10.3,12.6-17.5C149.8,457.1,149.7,457.2,149.6,457.3"/>
	<path class="st0" d="M127.6,436.4c0-4.5,0-11.1-5.3-16.2c0.6-1,1.1-2.1,1.4-3.3c0.9-2.7,1-5.6,0.9-7.5l0-12.3V397
		c-0.1-4.6-0.8-9.4-4.6-13.6c-3.4-3.8-8.4-5.8-14.6-5.8l-16.6,0c-1.8,0-3.6,0.7-4.9,2c-1.3,1.3-2,3.1-2,4.9l0.2,80.6
		c0,2.4,1.2,4.6,3.3,5.9c1.1,0.7,2.4,1.1,3.8,1.1l16.9,0c6.1,0,11.2-1.8,15.2-5.2l0.1,0c5.6-5,6.2-10.9,6.3-16.6v-0.1L127.6,436.4z"
		/>
	<path d="M123.3,436.9c0-4.5,0-10-4.7-13.9c-1-0.8-2.2-1.5-3.5-2.1c2.2-1.5,3.7-3.5,4.5-6c0.7-2.2,0.7-5,0.7-6.1l0-12.8
		c-0.1-3.5-0.5-7.6-3.4-10.8c-2.5-2.8-6.4-4.3-11.2-4.2l-17.4,0c-0.5,0-1,0.2-1.4,0.6c-0.4,0.4-0.6,0.9-0.6,1.4l0.1,84.1
		c0,0.7,0.4,1.3,0.9,1.7c0.3,0.2,0.7,0.3,1.1,0.3l17.7,0c1.9,0,7.6,0,12.4-4.1c4.2-3.9,4.7-8.4,4.8-13.5L123.3,436.9z M111,458.3
		c-1.2,0.9-2.8,1.4-6.6,1.5c0,0-6.7,0-7.2,0c-0.6,0-0.8-0.4-0.8-0.9c0-4.9-0.1-31.9-0.1-32.1c0-0.2,0.1-0.6,0.6-0.6
		c0.5,0,3.3,0,3.3,0c3.5,0.2,7.2,0.4,9.6,2c1.4,0.8,2.3,2,2.9,3.6c0.5,1.6,0.6,3.4,0.6,5.1l0,11.9
		C113.4,454.1,113.1,456.7,111,458.3 M105.2,416.5c-1.4,0.4-2.1,0.5-5.2,0.6l-3.1,0c-0.5,0-0.7-0.2-0.7-0.6c0-0.2,0-25.9,0-25.9
		c0-0.4,0.2-0.7,0.6-0.7h4.8h0.4c2.3,0.1,4.8,0.2,6.5,1.2c0.8,0.5,1.2,1,1.5,1.8c0.2,0.8,0.4,2.1,0.6,4.4l0,10c0,0.2,0,0.4,0,0.8
		C110.4,410.5,110.3,414.9,105.2,416.5"/>
</g>
</svg>
