<?xml version="1.0" encoding="utf-8"?>
<!-- Generator: Adobe Illustrator 19.1.0, SVG Export Plug-In . SVG Version: 6.00 Build 0)  -->
<svg version="1.1" id="Layer_1" xmlns="http://www.w3.org/2000/svg" xmlns:xlink="http://www.w3.org/1999/xlink" x="0px" y="0px"
	 width="279.6px" height="255.7px" viewBox="-44.2 326.9 279.6 255.7" style="enable-background:new -44.2 326.9 279.6 255.7;"
	 xml:space="preserve">
<style type="text/css">
	.st0{fill:#FFFFFF;}
	.st1{fill:none;stroke:#FFFFFF;stroke-width:1.7706;stroke-miterlimit:40;}
	.st2{fill:#CE1141;}
	.st3{fill:none;stroke:#CE1141;stroke-width:0.4433;}
</style>
<path class="st0" d="M234.4,384.3c-1.1-19.4-9.8-36.7-14.9-47.1l-0.6-1.2l-2.3-4.5l0.5,5c0.6,6.9,2.2,30.6-4.9,44.1
	c-8.8,18.2-34.5,16.4-43,15.9h-0.6c-13.9-0.9-59.1-2.5-73-2.5c-18.3,0.1-38.5,1.6-54.8,2.8c-8,0.6-14.8,1.1-19.5,1.3
	c-0.4,0-0.9,0.1-1.7,0.1c-22.8,2.1-37.2-4.6-42.8-20c-3.4-9.4-3.4-28.1-3.3-37v-2.7v-3.8l-1.8,3.3c-4.3,7.9-12.2,22.7-14.9,47.1
	c-1.5,28.8,13.5,39.2,24.9,44.4c11.9,5.5,24.1,6.3,28.1,6.6h0.3H10c0.8,0.2,1.8,0.2,2.7,0.2c1.2,0.1,2.6,0.1,3.9,0.4
	c-2.2,0.4-5,0.9-7.5,1.3c-2.7,0.5-5.2,0.9-6.5,1.2c-2.7,0.6-14.2,3.2-20.3,5.4c-5.2,1.8-10.9,4.5-11,4.5l-1,0.5l0.7,0.9
	c0.1,0.1,2,2.7,3.9,4.7c4,4,15.3,11.1,28.8,9.4c10.8-1.3,16.7-3.9,18.9-5c0.7,2.3,2.4,7.7,4.1,11.9c4.9,12.1,16,35.3,20.2,43.3
	c3.4,6.5,6.7,12.3,9,16.1l0.8,1.4c-0.7,2.5-2.5,4-3.8,5.2c-0.4,0.3-0.6,0.6-0.9,0.8l-0.2,0.3v0.4c-0.1,2.2-0.6,22.4,13.1,37.1
	l0.1,0.2l0.2,0.1c6.8,2.6,15.7,5.3,30,5.3c14.6,0,26.9-3.5,31.2-5.6l0.2-0.1l0.1-0.1c9.5-11.3,13.9-28.3,14-34.4v-0.4l-0.3-0.3
	c-0.2-0.2-0.5-0.5-0.7-0.7c-1.5-1.4-3.3-3.2-4.4-7.4c1.2-2,3.4-6.8,5.3-10.6c1-2.2,1.9-4,2.4-5c4-7.9,15.8-33.2,20.5-45.1
	c3-7.6,4.6-11.3,5.3-12.9c2.1,1.1,7.7,3.6,18.2,4.7c13.7,1.4,26.7-7.7,30.3-12.7c0.6-0.8,1.6-2,1.7-2.1l0.8-1l-1.1-0.5
	c-0.1,0-0.5-0.2-2.6-0.9l-7.6-2.5l-7.5-2.5c-2.1-0.7-11.3-2.7-18-4.2l-5.1-1.1l1.7-0.3C195.3,432.7,236.8,425.4,234.4,384.3"/>
<path class="st1" d="M234.4,384.3c-1.1-19.4-9.8-36.7-14.9-47.1l-0.6-1.2l-2.3-4.5l0.5,5c0.6,6.9,2.2,30.6-4.9,44.1
	c-8.8,18.2-34.5,16.4-43,15.9h-0.6c-13.9-0.9-59.1-2.5-73-2.5c-18.3,0.1-38.5,1.6-54.8,2.8c-8,0.6-14.8,1.1-19.5,1.3
	c-0.4,0-0.9,0.1-1.7,0.1c-22.8,2.1-37.2-4.6-42.8-20c-3.4-9.4-3.4-28.1-3.3-37v-2.7v-3.8l-1.8,3.3c-4.3,7.9-12.2,22.7-14.9,47.1
	c-1.5,28.8,13.5,39.2,24.9,44.4c11.9,5.5,24.1,6.3,28.1,6.6h0.3H10c0.8,0.2,1.8,0.2,2.7,0.2c1.2,0.1,2.6,0.1,3.9,0.4
	c-2.2,0.4-5,0.9-7.5,1.3c-2.7,0.5-5.2,0.9-6.5,1.2c-2.7,0.6-14.2,3.2-20.3,5.4c-5.2,1.8-10.9,4.5-11,4.5l-1,0.5l0.7,0.9
	c0.1,0.1,2,2.7,3.9,4.7c4,4,15.3,11.1,28.8,9.4c10.8-1.3,16.7-3.9,18.9-5c0.7,2.3,2.4,7.7,4.1,11.9c4.9,12.1,16,35.3,20.2,43.3
	c3.4,6.5,6.7,12.3,9,16.1l0.8,1.4c-0.7,2.5-2.5,4-3.8,5.2c-0.4,0.3-0.6,0.6-0.9,0.8l-0.2,0.3v0.4c-0.1,2.2-0.6,22.4,13.1,37.1
	l0.1,0.2l0.2,0.1c6.8,2.6,15.7,5.3,30,5.3c14.6,0,26.9-3.5,31.2-5.6l0.2-0.1l0.1-0.1c9.5-11.3,13.9-28.3,14-34.4v-0.4l-0.3-0.3
	c-0.2-0.2-0.5-0.5-0.7-0.7c-1.5-1.4-3.3-3.2-4.4-7.4c1.2-2,3.4-6.8,5.3-10.6c1-2.2,1.9-4,2.4-5c4-7.9,15.8-33.2,20.5-45.1
	c3-7.6,4.6-11.3,5.3-12.9c2.1,1.1,7.7,3.6,18.2,4.7c13.7,1.4,26.7-7.7,30.3-12.7c0.6-0.8,1.6-2,1.7-2.1l0.8-1l-1.1-0.5
	c-0.1,0-0.5-0.2-2.6-0.9l-7.6-2.5l-7.5-2.5c-2.1-0.7-11.3-2.7-18-4.2l-5.1-1.1l1.7-0.3C195.3,432.7,236.8,425.4,234.4,384.3z"/>
<path d="M234.4,384.3c-1.1-19.4-9.8-36.7-14.9-47.1l-0.6-1.2l-2.3-4.5l0.5,5c0.6,6.9,2.2,30.6-4.9,44.1c-8.8,18.2-34.5,16.4-43,15.9
	h-0.6c-13.9-0.9-59.1-2.5-73-2.5c-18.3,0.1-38.5,1.6-54.8,2.8c-8,0.6-14.8,1.1-19.5,1.3c-0.4,0-0.9,0.1-1.7,0.1
	c-22.8,2.1-37.2-4.6-42.8-20c-3.4-9.4-3.4-28.1-3.3-37v-2.7v-3.8l-1.8,3.3c-4.3,7.9-12.2,22.7-14.9,47.1
	c-1.5,28.8,13.5,39.2,24.9,44.4c11.9,5.5,24.1,6.3,28.1,6.6h0.3H10c0.8,0.2,1.8,0.2,2.7,0.2c1.2,0.1,2.6,0.1,3.9,0.4
	c-2.2,0.4-5,0.9-7.5,1.3c-2.7,0.5-5.2,0.9-6.5,1.2c-2.7,0.6-14.2,3.2-20.3,5.4c-5.2,1.8-10.9,4.5-11,4.5l-1,0.5l0.7,0.9
	c0.1,0.1,2,2.7,3.9,4.7c4,4,15.3,11.1,28.8,9.4c10.8-1.3,16.7-3.9,18.9-5c0.7,2.3,2.4,7.7,4.1,11.9c4.9,12.1,16,35.3,20.2,43.3
	c3.4,6.5,6.7,12.3,9,16.1l0.8,1.4c-0.7,2.5-2.5,4-3.8,5.2c-0.4,0.3-0.6,0.6-0.9,0.8l-0.2,0.3v0.4c-0.1,2.2-0.6,22.4,13.1,37.1
	l0.1,0.2l0.2,0.1c6.8,2.6,15.7,5.3,30,5.3c14.6,0,26.9-3.5,31.2-5.6l0.2-0.1l0.1-0.1c9.5-11.3,13.9-28.3,14-34.4v-0.4l-0.3-0.3
	c-0.2-0.2-0.5-0.5-0.7-0.7c-1.5-1.4-3.3-3.2-4.4-7.4c1.2-2,3.4-6.8,5.3-10.6c1-2.2,1.9-4,2.4-5c4-7.9,15.8-33.2,20.5-45.1
	c3-7.6,4.6-11.3,5.3-12.9c2.1,1.1,7.7,3.6,18.2,4.7c13.7,1.4,26.7-7.7,30.3-12.7c0.6-0.8,1.6-2,1.7-2.1l0.8-1l-1.1-0.5
	c-0.1,0-0.5-0.2-2.6-0.9l-7.6-2.5l-7.5-2.5c-2.1-0.7-11.3-2.7-18-4.2l-5.1-1.1l1.7-0.3C195.3,432.7,236.8,425.4,234.4,384.3"/>
<path class="st2" d="M-28.1,342.7c-0.5,10.7-0.4,22.4,2.1,32.6c-2.3-2.1-4.6-4.5-7-6.5c-2.1,2.4-4.1,4.9-6.3,7.2
	C-37,364.2-33.3,353.3-28.1,342.7L-28.1,342.7L-28.1,342.7z"/>
<path class="st3" d="M-28.1,342.7c-0.5,10.7-0.4,22.4,2.1,32.6c-2.3-2.1-4.6-4.5-7-6.5c-2.1,2.4-4.1,4.9-6.3,7.2
	C-37,364.2-33.3,353.3-28.1,342.7L-28.1,342.7L-28.1,342.7z"/>
<path class="st2" d="M230.2,371.2l0.7,2.9l-5.6-4c-2.5,1.1-4.9,2.7-7.3,3.8c1.7-10.2,2.2-20.9,1.5-31.8
	C224.5,351.2,227.2,361.2,230.2,371.2"/>
<path class="st3" d="M230.2,371.2l0.7,2.9l-5.6-4c-2.5,1.1-4.9,2.7-7.3,3.8c1.7-10.2,2.2-20.9,1.5-31.8
	C224.5,351.2,227.2,361.2,230.2,371.2z"/>
<path class="st2" d="M95.8,472.6c5.9,9,16.5,11.5,26.4,9c3.7-0.7,7.2-2.2,10.6-3.7c-3.1,9.4-5.3,19.8-5,30.4
	c0,9.3,1.6,18.1,4.4,26.5c-1.4-0.4-2.8-1.5-4.4-2.2c-19.6-9.9-47.3-9.5-66.6,0.7c0.9-3.1,1.9-6.5,2.6-9.7c3-14.9,0.8-30.5-4.3-44.1
	c10.5,4.4,25.7,5.3,34.1-4.3C94.4,474.3,95,473.3,95.8,472.6"/>
<path class="st3" d="M95.8,472.6c5.9,9,16.5,11.5,26.4,9c3.7-0.7,7.2-2.2,10.6-3.7c-3.1,9.4-5.3,19.8-5,30.4
	c0,9.3,1.6,18.1,4.4,26.5c-1.4-0.4-2.8-1.5-4.4-2.2c-19.6-9.9-47.3-9.5-66.6,0.7c0.9-3.1,1.9-6.5,2.6-9.7c3-14.9,0.8-30.5-4.3-44.1
	c10.5,4.4,25.7,5.3,34.1-4.3C94.4,474.3,95,473.3,95.8,472.6z"/>
<path class="st2" d="M52,480c-0.4,4.2-1.9,8.9-6.3,10.5c-3.7,1-7-1-9.4-3.6c-1-1.3-1.9-2.7-2.2-4.3c5.6,3.6,12.9,0.7,17.8-2.7
	L52,480z"/>
<path class="st3" d="M52,480c-0.4,4.2-1.9,8.9-6.3,10.5c-3.7,1-7-1-9.4-3.6c-1-1.3-1.9-2.7-2.2-4.3c5.6,3.6,12.9,0.7,17.8-2.7
	L52,480z"/>
<path class="st2" d="M157.5,480.5c-1.3,3.8-4.6,7.6-8.5,8.5c-3,0.4-5.7-1-7.4-3.6c-0.9-1.4-1.5-2.9-1.8-4.7
	C144.9,484.6,152.6,483.7,157.5,480.5"/>
<path class="st3" d="M157.5,480.5c-1.3,3.8-4.6,7.6-8.5,8.5c-3,0.4-5.7-1-7.4-3.6c-0.9-1.4-1.5-2.9-1.8-4.7
	C144.9,484.6,152.6,483.7,157.5,480.5z"/>
<path class="st2" d="M146.6,491.3c2.1,0.4,4.2-0.1,6.2-0.7c-5.6,13.9-12.3,27.4-19.2,40.7c-2.4-6.6-1.8-13.9-1.4-21.3
	c1-9,3.2-17.6,5.8-25.9C139.8,487.4,142.9,490.8,146.6,491.3"/>
<path class="st3" d="M146.6,491.3c2.1,0.4,4.2-0.1,6.2-0.7c-5.6,13.9-12.3,27.4-19.2,40.7c-2.4-6.6-1.8-13.9-1.4-21.3
	c1-9,3.2-17.6,5.8-25.9C139.8,487.4,142.9,490.8,146.6,491.3z"/>
<path class="st2" d="M59.1,531.2l-0.1,0.1c-8.4-12.8-14.8-26.3-20.9-40c2.8,1.5,7.3,2.5,10.2,0.5c2.8-1.9,4.4-4.9,5.4-8
	C60.5,497.6,62.1,515.6,59.1,531.2"/>
<path class="st3" d="M59.1,531.2l-0.1,0.1c-8.4-12.8-14.8-26.3-20.9-40c2.8,1.5,7.3,2.5,10.2,0.5c2.8-1.9,4.4-4.9,5.4-8
	C60.5,497.6,62.1,515.6,59.1,531.2z"/>
<path class="st2" d="M138,542.1c-1.4,12-5.7,22.6-13.3,31.9c-17.5,6.8-41,7.5-58.5,0.1c-8.5-9.3-11.7-21.3-12.2-34.1
	c18.5-13.5,47.5-16.5,68.7-6.8C128.1,535.7,133.3,538.3,138,542.1"/>
<path class="st3" d="M138,542.1c-1.4,12-5.7,22.6-13.3,31.9c-17.5,6.8-41,7.5-58.5,0.1c-8.5-9.3-11.7-21.3-12.2-34.1
	c18.5-13.5,47.5-16.5,68.7-6.8C128.1,535.7,133.3,538.3,138,542.1z"/>
<path class="st2" d="M209.8,445.8c-14.5-5.5-33.2-8.8-49.1-9.2c-1.5-17.7-3.5-28.8-7-38.8c-8.2-0.5-44.4-1.9-58.4-1.9
	s-49.6,2.2-57.7,2.7c-3.3,9.5-7,21.4-8.8,38.9c-16,0.9-37.6,5.5-52.2,11c-2.2,0.8-3.1,1.6-3.2,1.5c2.2,2.5,10.3,12.2,25.4,12.6
	c4.8,0.1,13.8-0.8,19.6-3.4c1.6-0.7,4.9-2.1,4.9-2.1s1.1,2,1.6,3.4c1.6,4.5,3.6,11,5,13.8c2.1,4.2,5.5,7.5,10.9,7.6
	c5,0.1,8.6-4,9.1-4.8c-14.1-0.7-20-8.3-20.9-19.6c-3.3-0.6-4.3-0.9-4.7-2.7c-0.4-1.8,0.1-3.7,1.5-5.9c1.6-2.1,4.3-4.2,11-2.1
	c4.4,1.4,7.9,4.2,10.4,6.4c2.9,2.6,11.4,11.4,16.5,14.4c5.4,3.2,15.8,6.1,22.5-0.5c6.5-6.4,7.2-11.8,8.1-15.2
	c-11.3-0.3-21.9-1.4-31.7-2.8c-2.9-0.4-1.6-3.1,0.6-2.5c0,0,18.5,2.4,31.5,2.5c0.1-1.5,0.1-4.2,0.2-7.1c-7.7-0.2-20.6-1-32.9-3.5
	c-2.5-0.5-2-3.3,0.3-2.7c1.8,0.5,21.9,3.3,32.6,3.3c0-2.3,0.1-5.6,0.1-8.7c-7.1,0-17.4-0.6-32.3-2.9c-2.6-0.4-2.1-2.8,0-2.6
	c0,0,18.4,2.7,32.3,2.6c0-2.1,0-4.6,0-7.1c0-2.8,2.4-2.9,2.4-0.2c0,1,0.1,3.7,0.1,7.2c13.3-0.4,25-2,30.4-2.9c3.2-0.6,2.9,2,1.4,2.3
	c-1.8,0.3-17.2,3.3-31.9,3.6c0,2.6,0.1,5.9,0.1,8.7c9.8-0.4,21.2-0.7,31-2.9c3.7-0.8,4,2,0.9,2.5c-9.6,1.6-23.4,3.2-31.8,3.3
	c0.1,2.4,0.1,5.3,0.2,7.2c15.7-0.4,30.6-2.6,33.1-3c2.6-0.4,3.1,2.3,0.4,2.7c-2.8,0.4-21.2,2.8-33,3.1c1.2,4,1.4,9.8,7.1,14.7
	c5.5,4.8,14.9,4.3,21.5,0.5c5.1-3,13.3-11.9,16.2-14.5c2.4-2.1,8.1-7.4,15.8-7.3c7.6,0.2,7.7,4.1,8.1,5.2c0.4,1.2,0.7,3.3-1,4.4
	c-1.4,0.8-2.6,0.6-3.9,1.2c-1,6.2-2.9,13.2-7.8,16.9c-5.3,4-13.5,4.5-13.5,4.5s1.1,1.3,1.5,1.6c0.9,0.8,3.7,2.2,7.3,1.9
	c3.4-0.3,7.4-2.9,9-4.6c2.5-3.3,4.9-10.2,6.7-14.7c0.7-1.7,2.2-4.7,2.7-6c1.6,0.7,2.3,1.2,5.2,2.3c5.9,2.4,13.6,3.4,18.4,3.2
	c7.8-0.2,16.7-4.9,22-9.9c0.9-0.9,2.7-3,2.7-3S211.2,446.3,209.8,445.8"/>
<path class="st3" d="M209.8,445.8c-14.5-5.5-33.2-8.8-49.1-9.2c-1.5-17.7-3.5-28.8-7-38.8c-8.2-0.5-44.4-1.9-58.4-1.9
	s-49.6,2.2-57.7,2.7c-3.3,9.5-7,21.4-8.8,38.9c-16,0.9-37.6,5.5-52.2,11c-2.2,0.8-3.1,1.6-3.2,1.5c2.2,2.5,10.3,12.2,25.4,12.6
	c4.8,0.1,13.8-0.8,19.6-3.4c1.6-0.7,4.9-2.1,4.9-2.1s1.1,2,1.6,3.4c1.6,4.5,3.6,11,5,13.8c2.1,4.2,5.5,7.5,10.9,7.6
	c5,0.1,8.6-4,9.1-4.8c-14.1-0.7-20-8.3-20.9-19.6c-3.3-0.6-4.3-0.9-4.7-2.7c-0.4-1.8,0.1-3.7,1.5-5.9c1.6-2.1,4.3-4.2,11-2.1
	c4.4,1.4,7.9,4.2,10.4,6.4c2.9,2.6,11.4,11.4,16.5,14.4c5.4,3.2,15.8,6.1,22.5-0.5c6.5-6.4,7.2-11.8,8.1-15.2
	c-11.3-0.3-21.9-1.4-31.7-2.8c-2.9-0.4-1.6-3.1,0.6-2.5c0,0,18.5,2.4,31.5,2.5c0.1-1.5,0.1-4.2,0.2-7.1c-7.7-0.2-20.6-1-32.9-3.5
	c-2.5-0.5-2-3.3,0.3-2.7c1.8,0.5,21.9,3.3,32.6,3.3c0-2.3,0.1-5.6,0.1-8.7c-7.1,0-17.4-0.6-32.3-2.9c-2.6-0.4-2.1-2.8,0-2.6
	c0,0,18.4,2.7,32.3,2.6c0-2.1,0-4.6,0-7.1c0-2.8,2.4-2.9,2.4-0.2c0,1,0.1,3.7,0.1,7.2c13.3-0.4,25-2,30.4-2.9c3.2-0.6,2.9,2,1.4,2.3
	c-1.8,0.3-17.2,3.3-31.9,3.6c0,2.6,0.1,5.9,0.1,8.7c9.8-0.4,21.2-0.7,31-2.9c3.7-0.8,4,2,0.9,2.5c-9.6,1.6-23.4,3.2-31.8,3.3
	c0.1,2.4,0.1,5.3,0.2,7.2c15.7-0.4,30.6-2.6,33.1-3c2.6-0.4,3.1,2.3,0.4,2.7c-2.8,0.4-21.2,2.8-33,3.1c1.2,4,1.4,9.8,7.1,14.7
	c5.5,4.8,14.9,4.3,21.5,0.5c5.1-3,13.3-11.9,16.2-14.5c2.4-2.1,8.1-7.4,15.8-7.3c7.6,0.2,7.7,4.1,8.1,5.2c0.4,1.2,0.7,3.3-1,4.4
	c-1.4,0.8-2.6,0.6-3.9,1.2c-1,6.2-2.9,13.2-7.8,16.9c-5.3,4-13.5,4.5-13.5,4.5s1.1,1.3,1.5,1.6c0.9,0.8,3.7,2.2,7.3,1.9
	c3.4-0.3,7.4-2.9,9-4.6c2.5-3.3,4.9-10.2,6.7-14.7c0.7-1.7,2.2-4.7,2.7-6c1.6,0.7,2.3,1.2,5.2,2.3c5.9,2.4,13.6,3.4,18.4,3.2
	c7.8-0.2,16.7-4.9,22-9.9c0.9-0.9,2.7-3,2.7-3S211.2,446.3,209.8,445.8z"/>
<path d="M125.5,544c1.4,2.7,0.3,5.8-1.3,8.1c-3,3.7-7.5,5.2-12.2,4c-2.6-0.9-5.2-2.5-6.7-5.1c-0.7,2.3,0.9,3.9,0.8,6
	c-0.3,0.4-1,0.5-1.3,0.1c-2.5-3.3-3.5-8.4-1.3-12.2c2.7-5.1,8.1-7.2,13.6-6.6C120.5,538.9,123.9,540.7,125.5,544"/>
<path class="st3" d="M125.5,544c1.4,2.7,0.3,5.8-1.3,8.1c-3,3.7-7.5,5.2-12.2,4c-2.6-0.9-5.2-2.5-6.7-5.1c-0.7,2.3,0.9,3.9,0.8,6
	c-0.3,0.4-1,0.5-1.3,0.1c-2.5-3.3-3.5-8.4-1.3-12.2c2.7-5.1,8.1-7.2,13.6-6.6C120.5,538.9,123.9,540.7,125.5,544z"/>
<path d="M86.9,545.7c2.2,3.7,1.2,8.6-0.9,12c-0.3,0.5-0.8,1.1-1.5,0.6c-0.9-1.2,0.4-2.2,0.5-3.3c0.1-0.9,0.4-1.9,0.1-2.8
	c-3,4.1-7.4,6.1-12.4,5.2c-3.5-0.7-6.7-3.4-8-6.8c-0.7-2.2-0.4-4.8,1-6.6c3.3-4.4,9.3-5.5,14.4-3.8
	C82.8,541.1,85.5,543.1,86.9,545.7"/>
<path class="st3" d="M86.9,545.7c2.2,3.7,1.2,8.6-0.9,12c-0.3,0.5-0.8,1.1-1.5,0.6c-0.9-1.2,0.4-2.2,0.5-3.3
	c0.1-0.9,0.4-1.9,0.1-2.8c-3,4.1-7.4,6.1-12.4,5.2c-3.5-0.7-6.7-3.4-8-6.8c-0.7-2.2-0.4-4.8,1-6.6c3.3-4.4,9.3-5.5,14.4-3.8
	C82.8,541.1,85.5,543.1,86.9,545.7z"/>
<path d="M125.2,570c-0.4,0.8-0.6,0.8-1.2,1.6c-1.8-0.5-3.7-1.2-5.5-1.9c-16-6.1-36.4-4.4-51.5,1.9c-0.4-0.4-0.7-0.8-0.9-1.5
	C83.6,562.2,107.6,561.3,125.2,570"/>
<path class="st3" d="M125.2,570c-0.4,0.8-0.6,0.8-1.2,1.6c-1.8-0.5-3.7-1.2-5.5-1.9c-16-6.1-36.4-4.4-51.5,1.9
	c-0.4-0.4-0.7-0.8-0.9-1.5C83.6,562.2,107.6,561.3,125.2,570z"/>
<path d="M128.1,485c-2.7,12.6-10.7,27.1-24,30.8c-10.6,2.8-22.5,0.6-29.6-8.2c-5.2-6.4-7.7-13.8-8.5-22.1c0.5-0.4,1-0.4,1.6-0.4
	c1.1,12,7.3,25.2,19.3,28.9c10.3,3.3,22.6,0.3,30.1-8.8c4.7-6.1,7.8-13.4,9.5-20.9C127.1,484.4,127.5,484.5,128.1,485"/>
<path class="st3" d="M128.1,485c-2.7,12.6-10.7,27.1-24,30.8c-10.6,2.8-22.5,0.6-29.6-8.2c-5.2-6.4-7.7-13.8-8.5-22.1
	c0.5-0.4,1-0.4,1.6-0.4c1.1,12,7.3,25.2,19.3,28.9c10.3,3.3,22.6,0.3,30.1-8.8c4.7-6.1,7.8-13.4,9.5-20.9
	C127.1,484.4,127.5,484.5,128.1,485z"/>
<path class="st0" d="M-23.3,383.5c6.9,13.3,20.8,17.6,35,16.9c7.9-0.1,15.5-0.9,23.3-1.4v0.5c-4,11.2-6.6,22.6-8.2,34.4
	c-20.5,0.8-41.5-0.9-56.6-14.6c-10.3-10.4-12.9-24.7-10.6-38.9c2.4-2.9,5-5.3,7.5-8.2C-29.5,375.8-24.2,378.7-23.3,383.5"/>
<path class="st0" d="M231.5,377.6c0.5,2.1,0.6,4,0.8,6.2c1,15.8-5.8,30.3-19.3,38.3c-14.7,8.9-31.7,11.9-49.8,12.4
	c-0.3-1.6-0.5-3.7-0.7-5.5c-1.4-10.4-3.4-20.8-6.3-30.8c19.3-0.2,42.8,4.9,55.6-12.9c1.7-2.5,3.4-4.7,4.9-7.4
	c2.9-1.3,5.6-3.1,8.4-4.6C227.5,374.4,229.2,376.3,231.5,377.6"/>
<path class="st0" d="M158.1,457.4c0.1,6.1-1.9,12.3-7.3,15.2c-2.5,1.4-5.5,1.9-8.3,1.8c-0.1-0.5-0.3-1.2-0.1-1.8
	c4.4,0.1,8.7-1.5,11-5.1c1.6-2.7,2.2-5.7,2.3-9.1C156.4,457.9,157.2,457.6,158.1,457.4"/>
<path class="st0" d="M49,473.8c-0.8,0.1-1.2,0.3-2.7,0c-7.1,0-14.6-5.7-14.1-15.3c0.8-0.3,1.8-0.2,2.7,0.1c0,5.5,2.2,13,13.8,13
	C49.5,472.8,48.7,472.9,49,473.8"/>
</svg>
